<svg width="30" height="30" viewBox="0 0 30 30" fill="none" xmlns="http://www.w3.org/2000/svg">
<path fill-rule="evenodd" clip-rule="evenodd" d="M7.77543 11.5254C7.68812 11.6125 7.61885 11.716 7.57159 11.8299C7.52433 11.9438 7.5 12.0659 7.5 12.1892C7.5 12.3125 7.52433 12.4346 7.57159 12.5485C7.61885 12.6624 7.68812 12.7658 7.77543 12.8529L13.4004 18.4779C13.4875 18.5652 13.591 18.6345 13.7049 18.6818C13.8188 18.729 13.9409 18.7533 14.0642 18.7533C14.1875 18.7533 14.3096 18.729 14.4235 18.6818C14.5374 18.6345 14.6408 18.5652 14.7279 18.4779L20.3529 12.8529C20.529 12.6769 20.6279 12.4381 20.6279 12.1892C20.6279 11.9402 20.529 11.7015 20.3529 11.5254C20.1769 11.3494 19.9381 11.2505 19.6892 11.2505C19.4402 11.2505 19.2015 11.3494 19.0254 11.5254L14.0642 16.4885L9.10293 11.5254C9.01584 11.4381 8.91239 11.3689 8.79849 11.3216C8.68459 11.2743 8.56249 11.25 8.43918 11.25C8.31586 11.25 8.19376 11.2743 8.07986 11.3216C7.96597 11.3689 7.86251 11.4381 7.77543 11.5254Z" fill="#FF575F"/>
</svg>
