<svg width="537" height="390" viewBox="0 0 537 390" fill="none" xmlns="http://www.w3.org/2000/svg">
<path d="M320.817 379.466L305.636 377.705V290.621H292.623V377.705L277.442 379.466L276.121 383.782H322.138L320.817 379.466Z" fill="#263238"/>
<path opacity="0.4" d="M320.817 379.466L305.636 377.705V290.621H292.623V377.705L277.442 379.466L276.121 383.782H322.138L320.817 379.466Z" fill="#FF575F"/>
<path d="M295.254 173.442H362.895C351.441 209.236 345.553 246.576 345.437 284.157H277.797C277.913 246.576 283.801 209.236 295.254 173.442Z" fill="#FF575F"/>
<path opacity="0.3" d="M295.254 173.442H362.895C351.441 209.236 345.553 246.576 345.437 284.157H277.797C277.913 246.576 283.801 209.236 295.254 173.442Z" fill="black"/>
<path d="M291.141 173.442H358.781C347.324 209.235 341.433 246.576 341.313 284.157H273.673C273.788 246.575 279.679 209.234 291.141 173.442Z" fill="#FF575F"/>
<path d="M329.901 294.55H234.152C238.179 285.789 245.501 280.421 253.403 280.421H323.416L329.901 294.55Z" fill="#FF575F"/>
<path d="M349.355 294.55H303.123C307.139 285.789 314.461 280.421 322.374 280.421H338.736C346.638 280.421 350.546 284.984 349.355 294.55Z" fill="#FF575F"/>
<path opacity="0.3" d="M349.355 294.55H303.123C307.139 285.789 314.461 280.421 322.374 280.421H338.736C346.638 280.421 350.546 284.984 349.355 294.55Z" fill="black"/>
<path d="M254.938 374.817L246.273 375.955L240.637 356.328L249.301 355.19L254.938 374.817Z" fill="#FFC3BD"/>
<path d="M245.189 373.69L254.852 372.412C255.014 372.387 255.179 372.425 255.313 372.519C255.447 372.613 255.54 372.756 255.571 372.916L257.053 380.55C257.108 380.954 257.001 381.364 256.756 381.689C256.511 382.015 256.147 382.231 255.743 382.289C252.35 382.676 250.708 382.687 246.434 383.256C243.804 383.599 234.753 384.855 231.092 384.877C227.431 384.898 227.613 381.28 229.116 380.926C236.063 379.423 241.571 376.631 243.761 374.409C244.145 374.018 244.647 373.765 245.189 373.69Z" fill="#263238"/>
<path opacity="0.2" d="M249.301 355.201L240.637 356.339L243.546 366.453L252.211 365.315L249.301 355.201Z" fill="black"/>
<path d="M283.358 248.974C283.358 248.974 215.449 253.837 218.187 278.714C222.127 314.477 237.513 361.439 237.513 361.439L253.263 358.733C253.263 358.733 246.671 315.433 243.171 287.518C260.113 280.496 306.066 287.228 311.455 272.594C314.099 265.015 314.796 256.893 313.484 248.974H283.358Z" fill="#263238"/>
<path opacity="0.3" d="M250.268 269.685C250.268 269.685 251.921 277.082 253.048 285.113H252.898L251.159 285.381L250.268 285.553L249.269 285.736C247.905 286.022 246.558 286.38 245.232 286.809L244.32 287.11C243.922 287.239 243.536 287.4 243.171 287.55C243.568 290.771 244.942 294.969 244.953 298.641C229.847 280.775 242.301 269.685 250.268 269.685Z" fill="black"/>
<path d="M255.732 362.309L237.255 364.736L234.764 358.09L253.263 353.945L255.732 362.309Z" fill="#FF575F"/>
<path d="M242.313 375.558C243.088 375.436 243.847 375.23 244.578 374.946C244.615 374.933 244.647 374.91 244.672 374.88C244.697 374.849 244.713 374.813 244.718 374.774C244.72 374.734 244.709 374.694 244.688 374.66C244.667 374.625 244.637 374.598 244.6 374.581C244.299 374.42 241.637 373.067 240.627 373.625C240.514 373.69 240.419 373.782 240.35 373.893C240.28 374.003 240.239 374.129 240.23 374.259C240.188 374.457 240.203 374.663 240.274 374.853C240.344 375.043 240.467 375.209 240.627 375.333C241.142 375.614 241.743 375.695 242.313 375.558ZM243.988 374.731C242.485 375.236 241.336 375.343 240.874 374.989C240.776 374.905 240.702 374.795 240.66 374.673C240.619 374.55 240.611 374.418 240.638 374.291C240.639 374.228 240.656 374.166 240.688 374.111C240.72 374.057 240.766 374.011 240.821 373.98C241.368 373.722 242.904 374.259 243.988 374.774V374.731Z" fill="#FF575F"/>
<path d="M244.536 374.999C244.563 375.01 244.594 375.01 244.621 374.999C244.652 374.98 244.676 374.952 244.693 374.92C244.71 374.889 244.719 374.853 244.718 374.817C244.718 374.72 244.578 372.197 243.591 371.478C243.467 371.38 243.321 371.313 243.166 371.283C243.011 371.254 242.851 371.261 242.7 371.306C242.527 371.334 242.369 371.419 242.25 371.548C242.131 371.676 242.059 371.84 242.045 372.015C241.969 372.981 243.505 374.624 244.428 375.021C244.465 375.025 244.503 375.017 244.536 374.999ZM242.893 371.65C243.056 371.628 243.221 371.671 243.355 371.768C243.938 372.538 244.261 373.475 244.278 374.441C243.44 373.904 242.399 372.648 242.453 372.015C242.453 371.886 242.506 371.735 242.796 371.671L242.893 371.65Z" fill="#FF575F"/>
<path d="M292.763 181.817C292.011 185.188 291.099 188.323 290.186 191.544C289.273 194.765 288.243 197.911 287.126 201.057C286.009 204.202 284.839 207.348 283.561 210.473C282.284 213.597 280.856 216.678 279.321 219.738L279.041 220.286L278.934 220.447C278.003 221.768 276.856 222.922 275.541 223.861C274.532 224.595 273.474 225.259 272.374 225.847C270.405 226.869 268.363 227.745 266.265 228.467C264.236 229.176 262.207 229.766 260.177 230.271C258.135 230.779 256.067 231.18 253.982 231.473L251.975 225.246L257.074 222.39C258.76 221.424 260.424 220.468 262.013 219.48C263.548 218.555 265.032 217.548 266.458 216.463C267.068 216.01 267.639 215.508 268.165 214.96C268.605 214.499 268.928 214.048 268.863 214.005L268.477 214.713C269.647 211.858 270.721 208.926 271.762 205.963C272.803 203 273.748 199.994 274.682 196.955C275.616 193.917 276.508 190.878 277.377 187.818C278.247 184.759 279.095 181.645 279.9 178.692L292.763 181.817Z" fill="#FFC3BD"/>
<path d="M278.57 179.487C271.473 187.636 266.76 199.038 266.76 199.038L285.334 210.215C290.702 203.677 297.38 186.402 297.649 180.572C298.067 171.617 286.214 170.715 278.57 179.487Z" fill="#FF575F"/>
<path opacity="0.5" d="M278.57 179.487C271.473 187.636 266.76 199.038 266.76 199.038L285.334 210.215C290.702 203.677 297.38 186.402 297.649 180.572C298.067 171.617 286.214 170.715 278.57 179.487Z" fill="white"/>
<path opacity="0.5" d="M285.108 187.797C281.06 191.2 278.183 198.276 276.927 205.147L285.333 210.204C287.985 206.983 290.959 201.132 293.321 195.312C291.432 189.547 288.683 184.791 285.108 187.797Z" fill="#FF575F"/>
<path d="M282.488 380.045H273.76L269.755 359.828H278.484L282.488 380.045Z" fill="#FFC3BD"/>
<path d="M273.48 377.919H283.293C283.457 377.913 283.616 377.972 283.736 378.083C283.857 378.193 283.929 378.347 283.937 378.51L284.41 386.272C284.413 386.681 284.254 387.073 283.968 387.365C283.683 387.657 283.293 387.823 282.885 387.829C279.471 387.765 277.839 387.571 273.523 387.571C270.871 387.571 261.874 387.84 258.213 387.84C254.552 387.84 254.648 384.222 256.205 383.889C263.162 382.418 269.518 380.389 271.977 378.456C272.404 378.115 272.933 377.926 273.48 377.919Z" fill="#263238"/>
<path opacity="0.2" d="M278.484 359.828H269.755L271.827 370.253H280.556L278.484 359.828Z" fill="black"/>
<path d="M300.461 248.974C300.461 248.974 242.913 253.837 244.33 278.832C245.877 306.199 268.037 367.741 268.037 367.741H284.023C284.023 367.741 276.787 312.061 273.287 284.189C289.51 284.189 323.169 287.249 328.558 272.615C331.192 265.173 331.723 257.149 330.094 249.425L300.461 248.974Z" fill="#263238"/>
<path d="M284.935 367.988L265.76 368.858L264.278 360.623L284.345 360.687L284.935 367.988Z" fill="#FF575F"/>
<path d="M270.388 379.444C271.173 379.421 271.954 379.316 272.718 379.133C272.756 379.123 272.79 379.103 272.817 379.074C272.843 379.046 272.861 379.01 272.868 378.972C272.877 378.933 272.873 378.893 272.858 378.856C272.842 378.82 272.816 378.789 272.783 378.768C272.503 378.574 270.034 376.878 268.971 377.297C268.85 377.345 268.743 377.424 268.66 377.526C268.577 377.627 268.522 377.748 268.499 377.876C268.44 378.062 268.433 378.26 268.479 378.449C268.524 378.638 268.62 378.811 268.756 378.95C269.218 379.315 269.801 379.491 270.388 379.444ZM272.16 378.832C270.592 379.143 269.443 379.1 269.035 378.692C268.951 378.593 268.894 378.474 268.869 378.346C268.845 378.218 268.854 378.086 268.896 377.962C268.906 377.899 268.931 377.839 268.971 377.788C269.01 377.737 269.062 377.697 269.121 377.672C269.69 377.458 271.14 378.188 272.16 378.832Z" fill="#FF575F"/>
<path d="M272.707 379.133H272.793C272.823 379.118 272.849 379.096 272.868 379.067C272.887 379.039 272.898 379.006 272.9 378.972C272.9 378.865 273.104 376.353 272.224 375.504C272.111 375.396 271.975 375.314 271.827 375.264C271.678 375.214 271.521 375.197 271.365 375.215C271.19 375.222 271.023 375.287 270.889 375.4C270.755 375.513 270.662 375.666 270.624 375.837C270.431 376.782 271.698 378.607 272.6 379.123C272.634 379.137 272.671 379.141 272.707 379.133ZM271.505 375.59C271.586 375.59 271.668 375.606 271.743 375.637C271.819 375.668 271.887 375.715 271.945 375.773C272.429 376.611 272.632 377.581 272.525 378.543C271.762 377.909 270.893 376.524 271.021 375.902C271.021 375.784 271.118 375.633 271.419 375.601L271.505 375.59Z" fill="#FF575F"/>
<path d="M256.109 225.482L246.35 223.034L247.037 233.47C247.037 233.47 256.7 233.47 257.516 230.625L256.109 225.482Z" fill="#FFC3BD"/>
<path d="M238.93 228.123L241.227 234.673L247.036 233.47L246.349 223.034L238.93 228.123Z" fill="#FFC3BD"/>
<path d="M283.443 249.425H330.126C330.459 245.259 329.492 231.688 330.212 214.413C330.655 201.612 332.206 188.874 334.85 176.341C335.065 175.396 335.279 174.473 335.505 173.528C335.505 173.528 333.132 173.045 329.739 172.551C326.926 172.132 323.394 171.714 319.937 171.553C313.329 171.171 306.704 171.171 300.096 171.553C297.047 171.832 294.062 172.336 291.689 172.798C288.651 173.41 286.858 173.936 286.858 173.936C286.858 173.936 275.327 200.337 283.443 249.425Z" fill="#FF575F"/>
<path opacity="0.5" d="M283.443 249.425H330.126C330.459 245.259 329.492 231.688 330.212 214.413C330.655 201.612 332.206 188.874 334.85 176.341C335.065 175.396 335.279 174.473 335.505 173.528C335.505 173.528 333.132 173.045 329.739 172.551C326.926 172.132 323.394 171.714 319.937 171.553C313.329 171.171 306.704 171.171 300.096 171.553C297.047 171.832 294.062 172.336 291.689 172.798C288.651 173.41 286.858 173.936 286.858 173.936C286.858 173.936 275.327 200.337 283.443 249.425Z" fill="white"/>
<path opacity="0.5" d="M330.179 214.424C330.623 201.62 332.175 188.878 334.818 176.342C331.704 176.073 326.368 176.342 325.488 181.42C324.532 186.831 324.457 199.479 330.179 214.424Z" fill="#FF575F"/>
<path d="M338.436 179.573C338.887 180.4 339.198 181.023 339.51 181.721C339.821 182.418 340.165 183.116 340.476 183.868C341.099 185.264 341.689 186.67 342.247 188.087C343.366 190.943 344.33 193.857 345.136 196.816C345.966 199.815 346.607 202.863 347.057 205.942C347.526 209.119 347.713 212.331 347.616 215.541V215.852V216.464C347.581 216.893 347.52 217.32 347.433 217.742C347.268 218.542 347.009 219.321 346.66 220.061C346.074 221.294 345.279 222.417 344.309 223.378C342.866 224.783 341.21 225.95 339.402 226.835C336.483 228.257 333.41 229.338 330.244 230.056C327.306 230.757 324.331 231.291 321.333 231.656C318.369 232.028 315.387 232.243 312.4 232.3L311.52 225.805C316.833 224.315 322.068 222.559 327.206 220.544C329.538 219.642 331.778 218.516 333.894 217.183C334.631 216.728 335.284 216.15 335.827 215.476C335.967 215.272 335.967 215.165 335.891 215.261C335.832 215.346 335.788 215.44 335.763 215.541C335.738 215.61 335.72 215.682 335.709 215.755C335.709 215.755 335.709 215.863 335.709 215.82V215.594C335.302 210.452 334.267 205.379 332.628 200.488C331.812 197.968 330.903 195.463 329.9 192.972C329.417 191.727 328.902 190.482 328.365 189.258L327.538 187.443L326.755 185.757L338.436 179.573Z" fill="#FFC3BD"/>
<path d="M335.473 173.529C326.969 170.845 321.515 177.641 323.877 189.419C326.239 201.197 329.246 205.588 329.246 205.588L349.13 202.775C347.508 191.223 344.169 176.277 335.473 173.529Z" fill="#FF575F"/>
<path opacity="0.5" d="M335.473 173.529C326.969 170.845 321.515 177.641 323.877 189.419C326.239 201.197 329.246 205.588 329.246 205.588L349.13 202.775C347.508 191.223 344.169 176.277 335.473 173.529Z" fill="white"/>
<path d="M319.476 149.296L314.172 153.698L306.936 159.753C307.15 160.716 307.304 161.692 307.397 162.674C307.784 166.603 306.775 170.189 301.009 171.531C301.009 171.531 295.33 176.835 306.678 176.996C318.027 177.157 320.636 171.628 320.636 171.628C316.352 167.333 318.005 155.684 319.476 149.296Z" fill="#FFC3BD"/>
<path d="M319.863 168.418C319.863 168.418 313.936 174.613 306.12 176.943C307.523 177.222 308.791 177.967 309.718 179.056C310.646 180.145 311.179 181.515 311.231 182.944C316.846 181.27 323.513 172.831 323.331 171.263C322.117 170.387 320.959 169.437 319.863 168.418Z" fill="white"/>
<path d="M303.596 170.168C303.596 170.168 298.292 174.613 306.119 176.943C304.681 177.116 303.33 177.722 302.245 178.681C301.159 179.639 300.391 180.905 300.042 182.311C298.653 180.767 297.815 178.806 297.659 176.735C297.504 174.664 298.04 172.6 299.183 170.866C300.668 170.728 302.142 170.495 303.596 170.168Z" fill="white"/>
<path opacity="0.2" d="M306.935 159.754C307.149 160.717 307.303 161.692 307.396 162.674C310.091 162.137 313.699 159.26 314.074 156.511C314.204 155.597 314.236 154.673 314.171 153.752L306.935 159.754Z" fill="black"/>
<path d="M300.01 129.691C296.446 132.644 297.09 144.067 300.515 143.015C303.94 141.963 305.894 124.838 300.01 129.691Z" fill="#263238"/>
<path d="M321.665 140.105C319.818 148.587 319.174 153.633 314.149 157.509C312.533 158.78 310.601 159.586 308.561 159.839C306.521 160.093 304.45 159.785 302.572 158.949C300.694 158.113 299.08 156.78 297.904 155.094C296.728 153.408 296.034 151.433 295.897 149.381C295.242 141.479 298.377 128.928 307.299 126.523C309.219 125.954 311.255 125.899 313.202 126.364C315.15 126.83 316.941 127.799 318.396 129.174C319.851 130.55 320.919 132.284 321.493 134.202C322.066 136.121 322.126 138.156 321.665 140.105Z" fill="#FFC3BD"/>
<path d="M318.875 145.925C317.5 144.228 317.404 139.912 318.381 138.538C316.91 137.368 315.439 133.589 316.577 132.096C313.7 131.903 298.808 135.478 295.845 124.785C297.387 125.048 298.962 125.048 300.504 124.785C300.504 124.785 297.477 119.749 302.845 118.246C303.629 120.791 310.103 121.048 313.313 120.93C319.895 120.662 327.399 123.4 324.361 128.51C329.171 130.625 329.955 139.966 318.875 145.925Z" fill="#263238"/>
<path d="M323.169 128.189C323.169 128.189 326.454 128.876 325.821 124.688C328.537 126.986 326.798 131.184 323.169 128.189Z" fill="#263238"/>
<path d="M323.05 147.943C321.9 149.439 320.243 150.462 318.391 150.82C315.986 151.25 315.256 149.038 316.318 146.902C317.274 144.969 319.679 142.424 321.891 142.972C324.102 143.52 324.478 146.096 323.05 147.943Z" fill="#FFC3BD"/>
<path d="M318.101 142.93C317.208 146.055 315.753 148.991 313.807 151.594C312.794 152.936 311.462 154.003 309.932 154.699C308.402 155.394 306.722 155.696 305.046 155.577C301.964 155.524 302.437 151.283 302.437 151.283L300.923 150.939C300.923 150.939 301.084 156.189 298.078 153.967C297.277 153.036 296.7 151.934 296.392 150.746C296.079 149.817 295.898 148.848 295.855 147.868C295.125 149.028 294.857 154.171 295.973 156.619C297.03 158.456 298.752 159.817 300.783 160.419C304.494 161.472 308.441 161.333 312.067 160.022C317.543 157.875 318.338 152.593 318.509 149.586C318.715 147.36 319.074 145.15 319.583 142.973L318.101 142.93Z" fill="#263238"/>
<path d="M307.129 140.878C307.021 141.576 306.57 142.091 306.109 142.038C305.647 141.984 305.368 141.372 305.475 140.685C305.582 139.998 306.044 139.461 306.549 139.514C307.053 139.568 307.236 140.18 307.129 140.878Z" fill="#263238"/>
<path d="M299.227 139.934C299.12 140.632 298.669 141.158 298.207 141.104C297.746 141.05 297.466 140.438 297.574 139.741C297.681 139.043 298.143 138.527 298.594 138.581C299.045 138.635 299.335 139.236 299.227 139.934Z" fill="#263238"/>
<path d="M301.696 140.213C300.819 142.009 299.707 143.681 298.39 145.184C298.78 145.497 299.234 145.72 299.72 145.837C300.207 145.954 300.713 145.962 301.203 145.86L301.696 140.213Z" fill="#ED847E"/>
<path d="M301.159 149.296C301.968 149.42 302.793 149.378 303.584 149.173C304.376 148.969 305.118 148.605 305.765 148.104C305.785 148.087 305.802 148.065 305.814 148.041C305.827 148.017 305.834 147.991 305.836 147.964C305.838 147.937 305.834 147.91 305.826 147.884C305.818 147.859 305.804 147.835 305.787 147.814C305.769 147.794 305.747 147.777 305.723 147.765C305.699 147.753 305.673 147.746 305.646 147.744C305.619 147.742 305.592 147.745 305.566 147.754C305.541 147.762 305.517 147.775 305.497 147.793C304.786 148.326 303.962 148.688 303.089 148.852C302.216 149.016 301.317 148.977 300.461 148.738C300.435 148.731 300.408 148.73 300.381 148.734C300.355 148.738 300.329 148.748 300.307 148.762C300.284 148.776 300.264 148.794 300.248 148.816C300.232 148.837 300.221 148.862 300.214 148.888C300.206 148.914 300.203 148.94 300.206 148.967C300.209 148.993 300.217 149.019 300.23 149.042C300.243 149.065 300.261 149.086 300.282 149.102C300.304 149.118 300.328 149.129 300.354 149.135C300.618 149.207 300.887 149.261 301.159 149.296Z" fill="#263238"/>
<path d="M311.616 136.562C311.686 136.55 311.749 136.516 311.799 136.466C311.837 136.428 311.867 136.383 311.888 136.333C311.909 136.283 311.92 136.23 311.92 136.176C311.92 136.122 311.909 136.069 311.888 136.019C311.867 135.969 311.837 135.924 311.799 135.886C311.378 135.39 310.841 135.006 310.236 134.768C309.631 134.53 308.977 134.446 308.331 134.522C308.277 134.53 308.225 134.549 308.179 134.577C308.132 134.605 308.092 134.642 308.06 134.686C308.027 134.73 308.005 134.78 307.992 134.833C307.98 134.886 307.978 134.941 307.987 134.995C308.008 135.103 308.07 135.198 308.161 135.26C308.251 135.322 308.362 135.347 308.47 135.328C308.976 135.28 309.485 135.352 309.957 135.539C310.429 135.726 310.851 136.021 311.187 136.401C311.233 136.469 311.299 136.521 311.376 136.55C311.453 136.579 311.537 136.583 311.616 136.562Z" fill="#263238"/>
<path d="M296.628 134.866C296.691 134.888 296.76 134.893 296.826 134.88C296.892 134.867 296.953 134.836 297.003 134.791C297.399 134.44 297.87 134.185 298.381 134.047C298.891 133.909 299.427 133.892 299.945 133.996C300.052 134.023 300.165 134.008 300.261 133.954C300.357 133.9 300.428 133.812 300.46 133.707C300.49 133.6 300.476 133.486 300.422 133.389C300.368 133.292 300.277 133.221 300.171 133.191C299.522 133.057 298.851 133.074 298.211 133.241C297.57 133.409 296.977 133.723 296.477 134.158C296.434 134.191 296.398 134.233 296.372 134.281C296.345 134.328 296.329 134.381 296.324 134.436C296.319 134.49 296.325 134.545 296.342 134.597C296.359 134.649 296.387 134.697 296.424 134.737C296.477 134.799 296.548 134.844 296.628 134.866Z" fill="#263238"/>
<path d="M313.163 225.418H305.1L309.008 234.007C309.008 234.007 316.931 233.889 316.523 229.809L313.163 225.418Z" fill="#FFC3BD"/>
<path d="M297.412 230.947L301.546 236.52L309.008 233.996L305.099 225.407L297.412 230.947Z" fill="#FFC3BD"/>
<path d="M372.933 389.396H376.852V239.88H372.933V389.396Z" fill="#FF575F"/>
<path d="M396.08 389.396H399.999V239.88H396.08V389.396Z" fill="#FF575F"/>
<path opacity="0.2" d="M396.08 389.396H399.999V239.88H396.08V389.396Z" fill="black"/>
<path d="M150.257 389.396H154.176L154.176 239.88H150.257L150.257 389.396Z" fill="#FF575F"/>
<path opacity="0.2" d="M150.258 239.88H154.177V340.342L150.258 331.57V239.88Z" fill="black"/>
<path d="M127.12 389.396H131.039L131.039 239.88H127.12L127.12 389.396Z" fill="#FF575F"/>
<path d="M127.12 327.34L376.862 327.34V239.88L127.12 239.88V327.34Z" fill="#FF575F"/>
<path d="M124.618 239.88L376.862 239.88V233.492L124.618 233.492V239.88Z" fill="#FF575F"/>
<path d="M399.989 239.88H376.852V327.34H399.989V239.88Z" fill="#FF575F"/>
<path opacity="0.2" d="M399.989 239.88H376.852V327.34H399.989V239.88Z" fill="black"/>
<path d="M402.49 233.503H376.852V239.891H402.49V233.503Z" fill="#FF575F"/>
<path opacity="0.2" d="M402.49 233.503H376.852V239.891H402.49V233.503Z" fill="black"/>
<path opacity="0.2" d="M127.12 244.336L399.999 244.336V239.891L127.12 239.891V244.336Z" fill="black"/>
<path d="M283.315 216.335H190.497C188.769 216.313 187.114 215.636 185.866 214.44C184.618 213.244 183.871 211.619 183.776 209.893L181.328 155.953C181.283 155.121 181.408 154.289 181.696 153.507C181.984 152.726 182.429 152.012 183.003 151.408C183.577 150.805 184.269 150.325 185.035 149.999C185.801 149.673 186.626 149.507 187.459 149.511H280.276C282.003 149.535 283.655 150.214 284.901 151.41C286.146 152.605 286.892 154.229 286.987 155.953L289.445 209.893C289.492 210.725 289.368 211.558 289.081 212.34C288.793 213.122 288.349 213.837 287.774 214.441C287.2 215.045 286.508 215.524 285.741 215.85C284.974 216.176 284.148 216.341 283.315 216.335Z" fill="#FF575F"/>
<path d="M282.071 216.335H189.253C187.525 216.313 185.87 215.636 184.622 214.44C183.374 213.244 182.627 211.619 182.532 209.893L180.084 155.953C180.039 155.121 180.164 154.289 180.452 153.507C180.74 152.726 181.185 152.012 181.759 151.408C182.333 150.805 183.025 150.325 183.791 149.999C184.557 149.673 185.382 149.507 186.215 149.511H279.032C280.758 149.535 282.411 150.214 283.657 151.41C284.902 152.605 285.647 154.229 285.742 155.953L288.201 209.893C288.248 210.725 288.124 211.558 287.837 212.34C287.549 213.122 287.105 213.837 286.53 214.441C285.956 215.045 285.263 215.524 284.496 215.85C283.729 216.176 282.904 216.341 282.071 216.335Z" fill="#FF575F"/>
<path opacity="0.2" d="M282.071 216.335H189.253C187.525 216.313 185.87 215.636 184.622 214.44C183.374 213.244 182.627 211.619 182.532 209.893L180.084 155.953C180.039 155.121 180.164 154.289 180.452 153.507C180.74 152.726 181.185 152.012 181.759 151.408C182.333 150.805 183.025 150.325 183.791 149.999C184.557 149.673 185.382 149.507 186.215 149.511H279.032C280.758 149.535 282.411 150.214 283.657 151.41C284.902 152.605 285.647 154.229 285.742 155.953L288.201 209.893C288.248 210.725 288.124 211.558 287.837 212.34C287.549 213.122 287.105 213.837 286.53 214.441C285.956 215.045 285.263 215.524 284.496 215.85C283.729 216.176 282.904 216.341 282.071 216.335Z" fill="white"/>
<path d="M243.997 183.739H226.271V216.335H243.997V183.739Z" fill="#FF575F"/>
<path d="M225.714 180.261L217.887 233.482H237.062L244.889 180.261H225.714ZM236.976 197.171L235.709 205.76C235.617 206.397 235.298 206.98 234.811 207.402C234.324 207.824 233.702 208.057 233.057 208.058H230.169C229.783 208.057 229.402 207.973 229.051 207.812C228.699 207.651 228.387 207.417 228.135 207.125C227.882 206.833 227.695 206.489 227.587 206.119C227.479 205.748 227.451 205.358 227.507 204.976L228.774 196.387C228.866 195.75 229.185 195.167 229.672 194.745C230.159 194.323 230.781 194.09 231.425 194.089H234.314C234.7 194.09 235.081 194.174 235.432 194.335C235.783 194.496 236.096 194.73 236.348 195.022C236.601 195.314 236.788 195.658 236.896 196.028C237.004 196.399 237.032 196.789 236.976 197.171Z" fill="#FF575F"/>
<path opacity="0.2" d="M225.714 180.261L217.887 233.482H237.062L244.889 180.261H225.714ZM236.976 197.171L235.709 205.76C235.617 206.397 235.298 206.98 234.811 207.402C234.324 207.824 233.702 208.057 233.057 208.058H230.169C229.783 208.057 229.402 207.973 229.051 207.812C228.699 207.651 228.387 207.417 228.135 207.125C227.882 206.833 227.695 206.489 227.587 206.119C227.479 205.748 227.451 205.358 227.507 204.976L228.774 196.387C228.866 195.75 229.185 195.167 229.672 194.745C230.159 194.323 230.781 194.09 231.425 194.089H234.314C234.7 194.09 235.081 194.174 235.432 194.335C235.783 194.496 236.096 194.73 236.348 195.022C236.601 195.314 236.788 195.658 236.896 196.028C237.004 196.399 237.032 196.789 236.976 197.171Z" fill="white"/>
<path d="M247.992 229.595H214.429L210.307 233.503H256.914L247.992 229.595Z" fill="#FF575F"/>
<path opacity="0.2" d="M247.992 229.595H214.429L210.307 233.503H256.914L247.992 229.595Z" fill="white"/>
<path d="M148.871 221.563C146.982 220.49 147.626 210.161 148.453 204.256C149.462 197.116 152.468 184.479 162.024 177.479C166.576 174.14 170.924 171.306 171.686 167.709C173.082 170.93 181.016 193.734 169.7 203.988C160.123 212.652 153.026 210.72 148.871 221.563Z" fill="#FF575F"/>
<g opacity="0.2">
<path opacity="0.2" d="M148.871 221.563C146.982 220.49 147.626 210.161 148.453 204.256C149.462 197.116 152.468 184.479 162.024 177.479C166.576 174.14 170.924 171.306 171.686 167.709C173.082 170.93 181.016 193.734 169.7 203.988C160.123 212.652 153.026 210.72 148.871 221.563Z" fill="black"/>
</g>
<path d="M151.385 215.702C153.586 214.467 151.063 202.431 149.044 195.581C146.607 187.293 140.745 172.648 127.571 164.639C121.323 160.827 115.385 157.606 113.807 153.408C112.583 157.134 108.654 186.477 124.544 198.244C138.039 208.197 144.352 203.161 151.385 215.702Z" fill="#FF575F"/>
<path d="M150.312 213.018C150.247 213.016 150.184 212.995 150.132 212.957C150.08 212.918 150.042 212.864 150.022 212.803C146.763 202.659 142.639 192.813 137.696 183.374C129.644 167.538 118.811 164.961 118.703 164.939C118.666 164.931 118.63 164.914 118.599 164.892C118.568 164.869 118.541 164.84 118.521 164.807C118.501 164.774 118.488 164.738 118.483 164.7C118.477 164.661 118.479 164.623 118.489 164.585C118.496 164.548 118.511 164.512 118.533 164.481C118.554 164.449 118.582 164.422 118.614 164.401C118.645 164.38 118.681 164.366 118.719 164.359C118.756 164.351 118.795 164.352 118.832 164.36C118.95 164.36 130.03 167.001 138.222 183.116C143.166 192.591 147.286 202.472 150.537 212.653C150.557 212.728 150.547 212.808 150.509 212.876C150.471 212.945 150.408 212.995 150.333 213.018H150.312Z" fill="white"/>
<path d="M116.062 175.332C116.025 175.334 115.988 175.328 115.953 175.315C115.918 175.302 115.886 175.282 115.858 175.257C115.804 175.201 115.773 175.126 115.773 175.047C115.773 174.969 115.804 174.894 115.858 174.838C117.845 172.938 120.376 171.704 123.097 171.31C125.818 170.915 128.595 171.379 131.04 172.637C131.074 172.653 131.106 172.676 131.131 172.704C131.157 172.733 131.176 172.766 131.188 172.802C131.2 172.839 131.205 172.877 131.201 172.915C131.198 172.953 131.187 172.99 131.169 173.024C131.154 173.059 131.132 173.091 131.104 173.118C131.076 173.145 131.042 173.165 131.006 173.178C130.97 173.191 130.931 173.197 130.892 173.194C130.854 173.192 130.816 173.181 130.782 173.163C128.442 171.967 125.786 171.53 123.186 171.915C120.586 172.3 118.17 173.487 116.277 175.31C116.21 175.342 116.134 175.35 116.062 175.332Z" fill="white"/>
<path d="M127.411 194.926C127.362 194.94 127.31 194.94 127.261 194.926C127.227 194.907 127.198 194.882 127.175 194.851C127.151 194.821 127.134 194.787 127.124 194.75C127.114 194.713 127.112 194.674 127.117 194.636C127.122 194.598 127.134 194.562 127.153 194.529C127.153 194.432 132.522 185.574 140.391 187.743C140.466 187.766 140.529 187.816 140.567 187.884C140.605 187.953 140.615 188.033 140.595 188.108C140.573 188.183 140.522 188.246 140.454 188.284C140.386 188.322 140.306 188.332 140.23 188.312C132.811 186.262 127.712 194.754 127.669 194.829C127.636 194.864 127.596 194.891 127.551 194.908C127.506 194.924 127.458 194.931 127.411 194.926Z" fill="white"/>
<path d="M135.925 179.873C135.86 179.872 135.797 179.851 135.745 179.812C135.694 179.774 135.655 179.72 135.635 179.659C135.363 178.641 135.462 177.56 135.914 176.609C136.085 176.34 136.312 176.11 136.578 175.934C136.844 175.758 137.145 175.641 137.46 175.589C137.497 175.58 137.536 175.579 137.575 175.585C137.613 175.591 137.649 175.606 137.681 175.627C137.714 175.648 137.741 175.676 137.762 175.708C137.783 175.74 137.797 175.777 137.804 175.815C137.82 175.892 137.805 175.972 137.763 176.038C137.721 176.104 137.655 176.151 137.578 176.169C137.341 176.2 137.114 176.283 136.913 176.413C136.712 176.543 136.543 176.717 136.419 176.921C136.055 177.734 135.979 178.646 136.204 179.508C136.215 179.545 136.219 179.584 136.215 179.622C136.21 179.66 136.198 179.697 136.179 179.73C136.16 179.763 136.134 179.792 136.103 179.815C136.072 179.838 136.037 179.854 136 179.863L135.925 179.873Z" fill="white"/>
<path d="M165.804 210.204H138.63L141.131 233.47H163.302L165.804 210.204Z" fill="#FF575F"/>
<path opacity="0.7" d="M165.804 210.204H138.63L141.131 233.47H163.302L165.804 210.204Z" fill="white"/>
<path d="M381.145 212.363V210.913C381.145 210.603 381.022 210.305 380.803 210.086C380.583 209.866 380.286 209.743 379.975 209.743H365.535C365.224 209.743 364.926 209.866 364.707 210.086C364.488 210.305 364.364 210.603 364.364 210.913V233.46H381.145V230.84C384.796 230.84 387.663 226.782 387.663 221.596C387.663 216.411 384.807 212.363 381.145 212.363ZM381.145 228.468V214.746C383.4 214.746 385.311 217.903 385.311 221.639C385.311 225.376 383.411 228.532 381.145 228.532V228.468Z" fill="#FF575F"/>
<path opacity="0.2" d="M381.145 212.363V210.913C381.145 210.603 381.022 210.305 380.803 210.086C380.583 209.866 380.286 209.743 379.975 209.743H365.535C365.224 209.743 364.926 209.866 364.707 210.086C364.488 210.305 364.364 210.603 364.364 210.913V233.46H381.145V230.84C384.796 230.84 387.663 226.782 387.663 221.596C387.663 216.411 384.807 212.363 381.145 212.363ZM381.145 228.468V214.746C383.4 214.746 385.311 217.903 385.311 221.639C385.311 225.376 383.411 228.532 381.145 228.532V228.468Z" fill="white"/>
<path opacity="0.3" d="M381.157 214.746H379.246L381.157 220.039V214.746Z" fill="black"/>
<path opacity="0.3" d="M381.157 230.883H379.246L381.157 231.763V230.883Z" fill="black"/>
</svg>
